# xmcd
#
# Track frame offsets:
#	150
#	18374
#	40524
#	58244
#	77448
#	95104
#	112513
#	132385
#	147500
#	167241
#	185648
#	202621
#	221095
#	242103
#	258287
#	274465
#	289365
#	307350
#	320498
#	333942
#
# Disc length: 4696 seconds
#
# Revision: 1
# Processed by: cddbd v1.5.2PL0 Copyright (c) Steve Scherf et al.
# Submitted via: audiograbber 1.80
#
DISCID=31125614
DTITLE=Taylor Swift - Fearless
DYEAR=1900
DGENRE=
TTITLE0=fearless
TTITLE1=fifteen
TTITLE2=love story
TTITLE3=hey stephen
TTITLE4=white horse
TTITLE5=you belong with me
TTITLE6=breathe
TTITLE7=tell me why
TTITLE8=you're not sorry
TTITLE9=the way I loved you
TTITLE10=forever and always
TTITLE11=teh best day
TTITLE12=change
TTITLE13=tear drops on my guitar
TTITLE14=i'm only me when i'm with you
TTITLE15=our song
TTITLE16=tim mcgran
TTITLE17=pitcure to burn
TTITLE18=beautiful eyes
TTITLE19=should said so
EXTD=
EXTT0=
EXTT1=
EXTT2=
EXTT3=
EXTT4=
EXTT5=
EXTT6=
EXTT7=
EXTT8=
EXTT9=
EXTT10=
EXTT11=
EXTT12=
EXTT13=
EXTT14=
EXTT15=
EXTT16=
EXTT17=
EXTT18=
EXTT19=
PLAYORDER=
